  0
SECTION
  2
HEADER
  9
$MEASUREMENT
  70
  1
  9
$INSUNITS
  70
  4
  0
ENDSEC
  0
SECTION
  2
TABLES
  0
TABLE
  2
LTYPE
 70
     1
  0
LTYPE
  2
CONTINUOUS
 70
    64
  3
Ausgezogene Linie
 72
    65
 73
     0
 40
0.0
  0
ENDTAB
  0
TABLE
  2
LAYER
 70
     3
  0
LAYER
  2
Contour
 70
    64
 62
     7
  6
CONTINUOUS
  0
LAYER
  2
Engraving
 70
    64
 62
     7
  6
CONTINUOUS
  0
LAYER
  2
Reference_points
 70
    64
 62
     1
  6
CONTINUOUS
  0
ENDTAB
  0
TABLE
  2
STYLE
 70
     1
  0
STYLE
  2
TXT
 70
    64
 40
0.0
 41
1.0
 50
0.0
 71
     0
 42
3.500000
  3
TXT
  0
ENDTAB
  0
ENDSEC
  0
SECTION
  2
BLOCKS
  0
ENDSEC
  0
SECTION
  2
ENTITIES
  0
LINE
  8
Contour
 62
   7
 39
0.100
  6
CONTINUOUS
 10
9.82000
 20
128.40000
 30
 0
 11
9.82000
 21
0.00000
  0
LINE
  8
Contour
 62
   7
 39
0.100
  6
CONTINUOUS
 10
9.82000
 20
0.00000
 30
 0
 11
0.00000
 21
0.00000
  0
LINE
  8
Contour
 62
   7
 39
0.100
  6
CONTINUOUS
 10
0.00000
 20
0.00000
 30
 0
 11
0.00000
 21
128.40000
  0
LINE
  8
Contour
 62
   7
 39
0.100
  6
CONTINUOUS
 10
0.00000
 20
128.40000
 30
 0
 11
9.82000
 21
128.40000
  0
LINE
  8
Engraving
 62
   7
 39
0.200
  6
CONTINUOUS
 10
4.07036
 20
81.46500
 30
 0
 11
4.07036
 21
79.19500
  0
LINE
  8
Engraving
 62
   7
 39
0.200
  6
CONTINUOUS
 10
4.51749
 20
79.19500
 30
 0
 11
4.51749
 21
81.46500
  0
LINE
  8
Engraving
 62
   7
 39
0.200
  6
CONTINUOUS
 10
4.51749
 20
81.46500
 30
 0
 11
4.67835
 21
81.46500
  0
LINE
  8
Engraving
 62
   7
 39
0.200
  6
CONTINUOUS
 10
4.67835
 20
81.46500
 30
 0
 11
5.75080
 21
79.19500
  0
LINE
  8
Engraving
 62
   7
 39
0.200
  6
CONTINUOUS
 10
5.75080
 20
79.19500
 30
 0
 11
5.75080
 21
81.46500
  0
LINE
  8
Engraving
 62
   7
 39
0.200
  6
CONTINUOUS
 10
4.23136
 20
61.41500
 30
 0
 11
4.87483
 21
63.68500
  0
LINE
  8
Engraving
 62
   7
 39
0.200
  6
CONTINUOUS
 10
4.87483
 20
63.68500
 30
 0
 11
4.94632
 21
63.68500
  0
LINE
  8
Engraving
 62
   7
 39
0.200
  6
CONTINUOUS
 10
4.94632
 20
63.68500
 30
 0
 11
5.58979
 21
61.41500
  0
LINE
  8
Engraving
 62
   7
 39
0.200
  6
CONTINUOUS
 10
4.42798
 20
62.11209
 30
 0
 11
5.39317
 21
62.11209
  0
LINE
  8
Engraving
 62
   7
 39
0.200
  6
CONTINUOUS
 10
5.01770
 20
50.63681
 30
 0
 11
5.17857
 21
50.63681
  0
LINE
  8
Engraving
 62
   7
 39
0.200
  6
CONTINUOUS
 10
5.17857
 20
50.63681
 30
 0
 11
5.32156
 21
50.54744
  0
LINE
  8
Engraving
 62
   7
 39
0.200
  6
CONTINUOUS
 10
5.32156
 20
50.54744
 30
 0
 11
5.41093
 21
50.42232
  0
LINE
  8
Engraving
 62
   7
 39
0.200
  6
CONTINUOUS
 10
5.41093
 20
50.42232
 30
 0
 11
5.42880
 21
50.29720
  0
LINE
  8
Engraving
 62
   7
 39
0.200
  6
CONTINUOUS
 10
5.42880
 20
50.29720
 30
 0
 11
5.42880
 21
49.74311
  0
LINE
  8
Engraving
 62
   7
 39
0.200
  6
CONTINUOUS
 10
5.42880
 20
49.74311
 30
 0
 11
5.44668
 21
49.61799
  0
LINE
  8
Engraving
 62
   7
 39
0.200
  6
CONTINUOUS
 10
5.44668
 20
49.61799
 30
 0
 11
5.46455
 21
49.47500
  0
LINE
  8
Engraving
 62
   7
 39
0.200
  6
CONTINUOUS
 10
4.35636
 20
49.47500
 30
 0
 11
4.35636
 21
51.74500
  0
LINE
  8
Engraving
 62
   7
 39
0.200
  6
CONTINUOUS
 10
4.35636
 20
51.74500
 30
 0
 11
4.99983
 21
51.74500
  0
LINE
  8
Engraving
 62
   7
 39
0.200
  6
CONTINUOUS
 10
4.99983
 20
51.74500
 30
 0
 11
5.19644
 21
51.69138
  0
LINE
  8
Engraving
 62
   7
 39
0.200
  6
CONTINUOUS
 10
5.19644
 20
51.69138
 30
 0
 11
5.32156
 21
51.60201
  0
LINE
  8
Engraving
 62
   7
 39
0.200
  6
CONTINUOUS
 10
5.32156
 20
51.60201
 30
 0
 11
5.41093
 21
51.47689
  0
LINE
  8
Engraving
 62
   7
 39
0.200
  6
CONTINUOUS
 10
5.41093
 20
51.47689
 30
 0
 11
5.42880
 21
51.31602
  0
LINE
  8
Engraving
 62
   7
 39
0.200
  6
CONTINUOUS
 10
5.42880
 20
51.31602
 30
 0
 11
5.42880
 21
51.06579
  0
LINE
  8
Engraving
 62
   7
 39
0.200
  6
CONTINUOUS
 10
5.42880
 20
51.06579
 30
 0
 11
5.41093
 21
50.92280
  0
LINE
  8
Engraving
 62
   7
 39
0.200
  6
CONTINUOUS
 10
5.41093
 20
50.92280
 30
 0
 11
5.32156
 21
50.77980
  0
LINE
  8
Engraving
 62
   7
 39
0.200
  6
CONTINUOUS
 10
5.32156
 20
50.77980
 30
 0
 11
5.21431
 21
50.69043
  0
LINE
  8
Engraving
 62
   7
 39
0.200
  6
CONTINUOUS
 10
5.21431
 20
50.69043
 30
 0
 11
5.01770
 21
50.63681
  0
LINE
  8
Engraving
 62
   7
 39
0.200
  6
CONTINUOUS
 10
5.01770
 20
50.63681
 30
 0
 11
4.35636
 21
50.63681
  0
LINE
  8
Engraving
 62
   7
 39
0.200
  6
CONTINUOUS
 10
2.68549
 20
10.48894
 30
 0
 11
2.68549
 21
9.75610
  0
LINE
  8
Engraving
 62
   7
 39
0.200
  6
CONTINUOUS
 10
2.68549
 20
9.75610
 30
 0
 11
2.72124
 21
9.57736
  0
LINE
  8
Engraving
 62
   7
 39
0.200
  6
CONTINUOUS
 10
2.72124
 20
9.57736
 30
 0
 11
2.79273
 21
9.47012
  0
LINE
  8
Engraving
 62
   7
 39
0.200
  6
CONTINUOUS
 10
2.79273
 20
9.47012
 30
 0
 11
2.88210
 21
9.39862
  0
LINE
  8
Engraving
 62
   7
 39
0.200
  6
CONTINUOUS
 10
2.88210
 20
9.39862
 30
 0
 11
3.00722
 21
9.32713
  0
LINE
  8
Engraving
 62
   7
 39
0.200
  6
CONTINUOUS
 10
3.00722
 20
9.32713
 30
 0
 11
3.11446
 21
9.32713
  0
LINE
  8
Engraving
 62
   7
 39
0.200
  6
CONTINUOUS
 10
3.11446
 20
9.32713
 30
 0
 11
3.40045
 21
9.32713
  0
LINE
  8
Engraving
 62
   7
 39
0.200
  6
CONTINUOUS
 10
3.40045
 20
9.32713
 30
 0
 11
3.56131
 21
9.34500
  0
LINE
  8
Engraving
 62
   7
 39
0.200
  6
CONTINUOUS
 10
3.56131
 20
9.34500
 30
 0
 11
3.68643
 21
9.41650
  0
LINE
  8
Engraving
 62
   7
 39
0.200
  6
CONTINUOUS
 10
3.68643
 20
9.41650
 30
 0
 11
3.79368
 21
9.55949
  0
LINE
  8
Engraving
 62
   7
 39
0.200
  6
CONTINUOUS
 10
3.79368
 20
9.55949
 30
 0
 11
3.84730
 21
9.75610
  0
LINE
  8
Engraving
 62
   7
 39
0.200
  6
CONTINUOUS
 10
3.84730
 20
9.75610
 30
 0
 11
3.84730
 21
11.20390
  0
LINE
  8
Engraving
 62
   7
 39
0.200
  6
CONTINUOUS
 10
3.84730
 20
11.20390
 30
 0
 11
3.81155
 21
11.34689
  0
LINE
  8
Engraving
 62
   7
 39
0.200
  6
CONTINUOUS
 10
3.81155
 20
11.34689
 30
 0
 11
3.74006
 21
11.48988
  0
LINE
  8
Engraving
 62
   7
 39
0.200
  6
CONTINUOUS
 10
3.74006
 20
11.48988
 30
 0
 11
3.65069
 21
11.56138
  0
LINE
  8
Engraving
 62
   7
 39
0.200
  6
CONTINUOUS
 10
3.65069
 20
11.56138
 30
 0
 11
3.56131
 21
11.61500
  0
LINE
  8
Engraving
 62
   7
 39
0.200
  6
CONTINUOUS
 10
3.56131
 20
11.61500
 30
 0
 11
3.40045
 21
11.63287
  0
LINE
  8
Engraving
 62
   7
 39
0.200
  6
CONTINUOUS
 10
3.40045
 20
11.63287
 30
 0
 11
3.11446
 21
11.63287
  0
LINE
  8
Engraving
 62
   7
 39
0.200
  6
CONTINUOUS
 10
3.11446
 20
11.63287
 30
 0
 11
2.97147
 21
11.61500
  0
LINE
  8
Engraving
 62
   7
 39
0.200
  6
CONTINUOUS
 10
2.97147
 20
11.61500
 30
 0
 11
2.84635
 21
11.54350
  0
LINE
  8
Engraving
 62
   7
 39
0.200
  6
CONTINUOUS
 10
2.84635
 20
11.54350
 30
 0
 11
2.75698
 21
11.45413
  0
LINE
  8
Engraving
 62
   7
 39
0.200
  6
CONTINUOUS
 10
2.75698
 20
11.45413
 30
 0
 11
2.70336
 21
11.34689
  0
LINE
  8
Engraving
 62
   7
 39
0.200
  6
CONTINUOUS
 10
2.70336
 20
11.34689
 30
 0
 11
2.68549
 21
11.20390
  0
LINE
  8
Engraving
 62
   7
 39
0.200
  6
CONTINUOUS
 10
2.68549
 20
11.20390
 30
 0
 11
2.68549
 21
10.48894
  0
LINE
  8
Engraving
 62
   7
 39
0.200
  6
CONTINUOUS
 10
4.31236
 20
11.61600
 30
 0
 11
4.31236
 21
9.77498
  0
LINE
  8
Engraving
 62
   7
 39
0.200
  6
CONTINUOUS
 10
4.31236
 20
9.77498
 30
 0
 11
4.36598
 21
9.56049
  0
LINE
  8
Engraving
 62
   7
 39
0.200
  6
CONTINUOUS
 10
4.36598
 20
9.56049
 30
 0
 11
4.43748
 21
9.45324
  0
LINE
  8
Engraving
 62
   7
 39
0.200
  6
CONTINUOUS
 10
4.43748
 20
9.45324
 30
 0
 11
4.58047
 21
9.36387
  0
LINE
  8
Engraving
 62
   7
 39
0.200
  6
CONTINUOUS
 10
4.58047
 20
9.36387
 30
 0
 11
4.75921
 21
9.32813
  0
LINE
  8
Engraving
 62
   7
 39
0.200
  6
CONTINUOUS
 10
4.75921
 20
9.32813
 30
 0
 11
4.99157
 21
9.32813
  0
LINE
  8
Engraving
 62
   7
 39
0.200
  6
CONTINUOUS
 10
4.99157
 20
9.32813
 30
 0
 11
5.13457
 21
9.34600
  0
LINE
  8
Engraving
 62
   7
 39
0.200
  6
CONTINUOUS
 10
5.13457
 20
9.34600
 30
 0
 11
5.29543
 21
9.43537
  0
LINE
  8
Engraving
 62
   7
 39
0.200
  6
CONTINUOUS
 10
5.29543
 20
9.43537
 30
 0
 11
5.42055
 21
9.59624
  0
LINE
  8
Engraving
 62
   7
 39
0.200
  6
CONTINUOUS
 10
5.42055
 20
9.59624
 30
 0
 11
5.45630
 21
9.77498
  0
LINE
  8
Engraving
 62
   7
 39
0.200
  6
CONTINUOUS
 10
5.45630
 20
9.77498
 30
 0
 11
5.45630
 21
11.61600
  0
LINE
  8
Engraving
 62
   7
 39
0.200
  6
CONTINUOUS
 10
6.51020
 20
9.34600
 30
 0
 11
6.51020
 21
11.61600
  0
LINE
  8
Engraving
 62
   7
 39
0.200
  6
CONTINUOUS
 10
5.90249
 20
11.61600
 30
 0
 11
7.13580
 21
11.61600
  0
LINE
  8
Engraving
 62
   7
 39
0.200
  6
CONTINUOUS
 10
1.62393
 20
4.13536
 30
 0
 11
2.05156
 21
3.21850
  0
LINE
  8
Engraving
 62
   7
 39
0.200
  6
CONTINUOUS
 10
2.05156
 20
3.21850
 30
 0
 11
2.09169
 21
3.12944
  0
LINE
  8
Engraving
 62
   7
 39
0.200
  6
CONTINUOUS
 10
2.09169
 20
3.12944
 30
 0
 11
2.09759
 21
3.11665
  0
LINE
  8
Engraving
 62
   7
 39
0.200
  6
CONTINUOUS
 10
2.09759
 20
3.11665
 30
 0
 11
2.09759
 21
3.11665
  0
LINE
  8
Engraving
 62
   7
 39
0.200
  6
CONTINUOUS
 10
2.09759
 20
3.11665
 30
 0
 11
2.19100
 21
2.93791
  0
LINE
  8
Engraving
 62
   7
 39
0.200
  6
CONTINUOUS
 10
2.19100
 20
2.93791
 30
 0
 11
2.21158
 21
2.90629
  0
LINE
  8
Engraving
 62
   7
 39
0.200
  6
CONTINUOUS
 10
2.21158
 20
2.90629
 30
 0
 11
2.21289
 21
2.80464
  0
LINE
  8
Engraving
 62
   7
 39
0.200
  6
CONTINUOUS
 10
2.21289
 20
2.80464
 30
 0
 11
2.21289
 21
2.58497
  0
LINE
  8
Engraving
 62
   7
 39
0.200
  6
CONTINUOUS
 10
2.21289
 20
2.58497
 30
 0
 11
2.21289
 21
1.87186
  0
LINE
  8
Engraving
 62
   7
 39
0.200
  6
CONTINUOUS
 10
2.80185
 20
4.13536
 30
 0
 11
2.38901
 21
3.25670
  0
LINE
  8
Engraving
 62
   7
 39
0.200
  6
CONTINUOUS
 10
2.38901
 20
3.25670
 30
 0
 11
2.27418
 21
3.01157
  0
LINE
  8
Engraving
 62
   7
 39
0.200
  6
CONTINUOUS
 10
2.27418
 20
3.01157
 30
 0
 11
2.21043
 21
2.90868
  0
LINE
  8
Engraving
 62
   7
 39
0.200
  6
CONTINUOUS
 10
3.23085
 20
1.87186
 30
 0
 11
3.23085
 21
3.59416
  0
LINE
  8
Engraving
 62
   7
 39
0.200
  6
CONTINUOUS
 10
3.23085
 20
3.59416
 30
 0
 11
3.23085
 21
4.00802
  0
LINE
  8
Engraving
 62
   7
 39
0.200
  6
CONTINUOUS
 10
3.23085
 20
4.00802
 30
 0
 11
3.22887
 21
4.05417
  0
LINE
  8
Engraving
 62
   7
 39
0.200
  6
CONTINUOUS
 10
3.22887
 20
4.05417
 30
 0
 11
3.22880
 21
4.06215
  0
LINE
  8
Engraving
 62
   7
 39
0.200
  6
CONTINUOUS
 10
3.22880
 20
4.06215
 30
 0
 11
3.22880
 21
4.06215
  0
LINE
  8
Engraving
 62
   7
 39
0.200
  6
CONTINUOUS
 10
3.22880
 20
4.06215
 30
 0
 11
3.23740
 21
4.11250
  0
LINE
  8
Engraving
 62
   7
 39
0.200
  6
CONTINUOUS
 10
3.23740
 20
4.11250
 30
 0
 11
3.24587
 21
4.12183
  0
LINE
  8
Engraving
 62
   7
 39
0.200
  6
CONTINUOUS
 10
3.24587
 20
4.12183
 30
 0
 11
3.24587
 21
4.12183
  0
LINE
  8
Engraving
 62
   7
 39
0.200
  6
CONTINUOUS
 10
3.24587
 20
4.12183
 30
 0
 11
3.25944
 21
4.12469
  0
LINE
  8
Engraving
 62
   7
 39
0.200
  6
CONTINUOUS
 10
3.25944
 20
4.12469
 30
 0
 11
3.27847
 21
4.11813
  0
LINE
  8
Engraving
 62
   7
 39
0.200
  6
CONTINUOUS
 10
3.27847
 20
4.11813
 30
 0
 11
3.27893
 21
4.11788
  0
LINE
  8
Engraving
 62
   7
 39
0.200
  6
CONTINUOUS
 10
3.27893
 20
4.11788
 30
 0
 11
3.27939
 21
4.11762
  0
LINE
  8
Engraving
 62
   7
 39
0.200
  6
CONTINUOUS
 10
3.27939
 20
4.11762
 30
 0
 11
3.27939
 21
4.11762
  0
LINE
  8
Engraving
 62
   7
 39
0.200
  6
CONTINUOUS
 10
3.27939
 20
4.11762
 30
 0
 11
3.29528
 21
4.09960
  0
LINE
  8
Engraving
 62
   7
 39
0.200
  6
CONTINUOUS
 10
3.29528
 20
4.09960
 30
 0
 11
3.30511
 21
4.07359
  0
LINE
  8
Engraving
 62
   7
 39
0.200
  6
CONTINUOUS
 10
3.30511
 20
4.07359
 30
 0
 11
3.30511
 21
4.07359
  0
LINE
  8
Engraving
 62
   7
 39
0.200
  6
CONTINUOUS
 10
3.30511
 20
4.07359
 30
 0
 11
3.31039
 21
4.05209
  0
LINE
  8
Engraving
 62
   7
 39
0.200
  6
CONTINUOUS
 10
3.31039
 20
4.05209
 30
 0
 11
3.31500
 21
4.03349
  0
LINE
  8
Engraving
 62
   7
 39
0.200
  6
CONTINUOUS
 10
3.31500
 20
4.03349
 30
 0
 11
3.38504
 21
3.80109
  0
LINE
  8
Engraving
 62
   7
 39
0.200
  6
CONTINUOUS
 10
3.38504
 20
3.80109
 30
 0
 11
3.66391
 21
2.87468
  0
LINE
  8
Engraving
 62
   7
 39
0.200
  6
CONTINUOUS
 10
3.66391
 20
2.87468
 30
 0
 11
3.74931
 21
2.59134
  0
LINE
  8
Engraving
 62
   7
 39
0.200
  6
CONTINUOUS
 10
3.74931
 20
2.59134
 30
 0
 11
3.75694
 21
2.55976
  0
LINE
  8
Engraving
 62
   7
 39
0.200
  6
CONTINUOUS
 10
3.75694
 20
2.55976
 30
 0
 11
3.75818
 21
2.55491
  0
LINE
  8
Engraving
 62
   7
 39
0.200
  6
CONTINUOUS
 10
3.75818
 20
2.55491
 30
 0
 11
3.75818
 21
2.55491
  0
LINE
  8
Engraving
 62
   7
 39
0.200
  6
CONTINUOUS
 10
3.75818
 20
2.55491
 30
 0
 11
3.77375
 21
2.51898
  0
LINE
  8
Engraving
 62
   7
 39
0.200
  6
CONTINUOUS
 10
3.77375
 20
2.51898
 30
 0
 11
3.78215
 21
2.51100
  0
LINE
  8
Engraving
 62
   7
 39
0.200
  6
CONTINUOUS
 10
3.78215
 20
2.51100
 30
 0
 11
3.78215
 21
2.51100
  0
LINE
  8
Engraving
 62
   7
 39
0.200
  6
CONTINUOUS
 10
3.78215
 20
2.51100
 30
 0
 11
3.79059
 21
2.50691
  0
LINE
  8
Engraving
 62
   7
 39
0.200
  6
CONTINUOUS
 10
3.79059
 20
2.50691
 30
 0
 11
3.80070
 21
2.50540
  0
LINE
  8
Engraving
 62
   7
 39
0.200
  6
CONTINUOUS
 10
3.80070
 20
2.50540
 30
 0
 11
3.82095
 21
2.51065
  0
LINE
  8
Engraving
 62
   7
 39
0.200
  6
CONTINUOUS
 10
3.82095
 20
2.51065
 30
 0
 11
3.82413
 21
2.51286
  0
LINE
  8
Engraving
 62
   7
 39
0.200
  6
CONTINUOUS
 10
3.82413
 20
2.51286
 30
 0
 11
3.82413
 21
2.51286
  0
LINE
  8
Engraving
 62
   7
 39
0.200
  6
CONTINUOUS
 10
3.82413
 20
2.51286
 30
 0
 11
3.84349
 21
2.54516
  0
LINE
  8
Engraving
 62
   7
 39
0.200
  6
CONTINUOUS
 10
3.84349
 20
2.54516
 30
 0
 11
3.84729
 21
2.55864
  0
LINE
  8
Engraving
 62
   7
 39
0.200
  6
CONTINUOUS
 10
3.84729
 20
2.55864
 30
 0
 11
3.84729
 21
2.55864
  0
LINE
  8
Engraving
 62
   7
 39
0.200
  6
CONTINUOUS
 10
3.84729
 20
2.55864
 30
 0
 11
3.85129
 21
2.57559
  0
LINE
  8
Engraving
 62
   7
 39
0.200
  6
CONTINUOUS
 10
3.85129
 20
2.57559
 30
 0
 11
3.85528
 21
2.59134
  0
LINE
  8
Engraving
 62
   7
 39
0.200
  6
CONTINUOUS
 10
3.85528
 20
2.59134
 30
 0
 11
3.93969
 21
2.87149
  0
LINE
  8
Engraving
 62
   7
 39
0.200
  6
CONTINUOUS
 10
3.93969
 20
2.87149
 30
 0
 11
4.21956
 21
3.80109
  0
LINE
  8
Engraving
 62
   7
 39
0.200
  6
CONTINUOUS
 10
4.21956
 20
3.80109
 30
 0
 11
4.29086
 21
4.03667
  0
LINE
  8
Engraving
 62
   7
 39
0.200
  6
CONTINUOUS
 10
4.29086
 20
4.03667
 30
 0
 11
4.29932
 21
4.07078
  0
LINE
  8
Engraving
 62
   7
 39
0.200
  6
CONTINUOUS
 10
4.29932
 20
4.07078
 30
 0
 11
4.30043
 21
4.07492
  0
LINE
  8
Engraving
 62
   7
 39
0.200
  6
CONTINUOUS
 10
4.30043
 20
4.07492
 30
 0
 11
4.30043
 21
4.07492
  0
LINE
  8
Engraving
 62
   7
 39
0.200
  6
CONTINUOUS
 10
4.30043
 20
4.07492
 30
 0
 11
4.31853
 21
4.11223
  0
LINE
  8
Engraving
 62
   7
 39
0.200
  6
CONTINUOUS
 10
4.31853
 20
4.11223
 30
 0
 11
4.32425
 21
4.11695
  0
LINE
  8
Engraving
 62
   7
 39
0.200
  6
CONTINUOUS
 10
4.32425
 20
4.11695
 30
 0
 11
4.32425
 21
4.11695
  0
LINE
  8
Engraving
 62
   7
 39
0.200
  6
CONTINUOUS
 10
4.32425
 20
4.11695
 30
 0
 11
4.32522
 21
4.11756
  0
LINE
  8
Engraving
 62
   7
 39
0.200
  6
CONTINUOUS
 10
4.32522
 20
4.11756
 30
 0
 11
4.32622
 21
4.11813
  0
LINE
  8
Engraving
 62
   7
 39
0.200
  6
CONTINUOUS
 10
4.32622
 20
4.11813
 30
 0
 11
4.35622
 21
4.12419
  0
LINE
  8
Engraving
 62
   7
 39
0.200
  6
CONTINUOUS
 10
4.35622
 20
4.12419
 30
 0
 11
4.36039
 21
4.12224
  0
LINE
  8
Engraving
 62
   7
 39
0.200
  6
CONTINUOUS
 10
4.36039
 20
4.12224
 30
 0
 11
4.36039
 21
4.12224
  0
LINE
  8
Engraving
 62
   7
 39
0.200
  6
CONTINUOUS
 10
4.36039
 20
4.12224
 30
 0
 11
4.37748
 21
4.08147
  0
LINE
  8
Engraving
 62
   7
 39
0.200
  6
CONTINUOUS
 10
4.37748
 20
4.08147
 30
 0
 11
4.37851
 21
4.06259
  0
LINE
  8
Engraving
 62
   7
 39
0.200
  6
CONTINUOUS
 10
4.37851
 20
4.06259
 30
 0
 11
4.37851
 21
4.06259
  0
LINE
  8
Engraving
 62
   7
 39
0.200
  6
CONTINUOUS
 10
4.37851
 20
4.06259
 30
 0
 11
4.37785
 21
4.03158
  0
LINE
  8
Engraving
 62
   7
 39
0.200
  6
CONTINUOUS
 10
4.37785
 20
4.03158
 30
 0
 11
4.37693
 21
4.00802
  0
LINE
  8
Engraving
 62
   7
 39
0.200
  6
CONTINUOUS
 10
4.37693
 20
4.00802
 30
 0
 11
4.37693
 21
3.59416
  0
LINE
  8
Engraving
 62
   7
 39
0.200
  6
CONTINUOUS
 10
4.37693
 20
3.59416
 30
 0
 11
4.37693
 21
1.87186
  0
LINE
  8
Engraving
 62
   7
 39
0.400
  6
CONTINUOUS
 10
1.44349
 20
110.12500
 30
 0
 11
2.45007
 21
113.67600
  0
LINE
  8
Engraving
 62
   7
 39
0.400
  6
CONTINUOUS
 10
2.45007
 20
113.67600
 30
 0
 11
2.56191
 21
113.67600
  0
LINE
  8
Engraving
 62
   7
 39
0.400
  6
CONTINUOUS
 10
2.56191
 20
113.67600
 30
 0
 11
3.56850
 21
110.12500
  0
LINE
  8
Engraving
 62
   7
 39
0.400
  6
CONTINUOUS
 10
1.75106
 20
111.21546
 30
 0
 11
3.26093
 21
111.21546
  0
LINE
  8
Engraving
 62
   7
 39
0.400
  6
CONTINUOUS
 10
5.33003
 20
111.94244
 30
 0
 11
5.58168
 21
111.94244
  0
LINE
  8
Engraving
 62
   7
 39
0.400
  6
CONTINUOUS
 10
5.58168
 20
111.94244
 30
 0
 11
5.80536
 21
111.80264
  0
LINE
  8
Engraving
 62
   7
 39
0.400
  6
CONTINUOUS
 10
5.80536
 20
111.80264
 30
 0
 11
5.94517
 21
111.60691
  0
LINE
  8
Engraving
 62
   7
 39
0.400
  6
CONTINUOUS
 10
5.94517
 20
111.60691
 30
 0
 11
5.97313
 21
111.41119
  0
LINE
  8
Engraving
 62
   7
 39
0.400
  6
CONTINUOUS
 10
5.97313
 20
111.41119
 30
 0
 11
5.97313
 21
110.54441
  0
LINE
  8
Engraving
 62
   7
 39
0.400
  6
CONTINUOUS
 10
5.97313
 20
110.54441
 30
 0
 11
6.00109
 21
110.34869
  0
LINE
  8
Engraving
 62
   7
 39
0.400
  6
CONTINUOUS
 10
6.00109
 20
110.34869
 30
 0
 11
6.02905
 21
110.12500
  0
LINE
  8
Engraving
 62
   7
 39
0.400
  6
CONTINUOUS
 10
4.29549
 20
110.12500
 30
 0
 11
4.29549
 21
113.67600
  0
LINE
  8
Engraving
 62
   7
 39
0.400
  6
CONTINUOUS
 10
4.29549
 20
113.67600
 30
 0
 11
5.30207
 21
113.67600
  0
LINE
  8
Engraving
 62
   7
 39
0.400
  6
CONTINUOUS
 10
5.30207
 20
113.67600
 30
 0
 11
5.60964
 21
113.59212
  0
LINE
  8
Engraving
 62
   7
 39
0.400
  6
CONTINUOUS
 10
5.60964
 20
113.59212
 30
 0
 11
5.80536
 21
113.45231
  0
LINE
  8
Engraving
 62
   7
 39
0.400
  6
CONTINUOUS
 10
5.80536
 20
113.45231
 30
 0
 11
5.94517
 21
113.25659
  0
LINE
  8
Engraving
 62
   7
 39
0.400
  6
CONTINUOUS
 10
5.94517
 20
113.25659
 30
 0
 11
5.97313
 21
113.00494
  0
LINE
  8
Engraving
 62
   7
 39
0.400
  6
CONTINUOUS
 10
5.97313
 20
113.00494
 30
 0
 11
5.97313
 21
112.61350
  0
LINE
  8
Engraving
 62
   7
 39
0.400
  6
CONTINUOUS
 10
5.97313
 20
112.61350
 30
 0
 11
5.94517
 21
112.38981
  0
LINE
  8
Engraving
 62
   7
 39
0.400
  6
CONTINUOUS
 10
5.94517
 20
112.38981
 30
 0
 11
5.80536
 21
112.16613
  0
LINE
  8
Engraving
 62
   7
 39
0.400
  6
CONTINUOUS
 10
5.80536
 20
112.16613
 30
 0
 11
5.63760
 21
112.02632
  0
LINE
  8
Engraving
 62
   7
 39
0.400
  6
CONTINUOUS
 10
5.63760
 20
112.02632
 30
 0
 11
5.33003
 21
111.94244
  0
LINE
  8
Engraving
 62
   7
 39
0.400
  6
CONTINUOUS
 10
5.33003
 20
111.94244
 30
 0
 11
4.29549
 21
111.94244
  0
ARC
  8
Engraving
 62
   7
 39
0.400
  6
CONTINUOUS
 10
7.56224
 20
112.91130
 30
 0
 40
0.81549
 50
103.59010
 51
197.25422
  0
ARC
  8
Engraving
 62
   7
 39
0.400
  6
CONTINUOUS
 10
7.58855
 20
112.96944
 30
 0
 40
0.76617
 50
6.85332
 51
106.52541
  0
ARC
  8
Engraving
 62
   7
 39
0.400
  6
CONTINUOUS
 10
6.65548
 20
112.80968
 30
 0
 40
1.71229
 50
-32.62504
 51
8.43552
  0
ARC
  8
Engraving
 62
   7
 39
0.400
  6
CONTINUOUS
 10
4.59352
 20
113.99088
 30
 0
 40
4.08741
 50
312.79903
 51
329.01325
  0
LINE
  8
Engraving
 62
   7
 39
0.400
  6
CONTINUOUS
 10
7.37062
 20
110.99178
 30
 0
 11
6.72753
 21
110.32072
  0
LINE
  8
Engraving
 62
   7
 39
0.400
  6
CONTINUOUS
 10
6.72753
 20
110.32072
 30
 0
 11
6.72753
 21
110.12500
  0
LINE
  8
Engraving
 62
   7
 39
0.400
  6
CONTINUOUS
 10
6.72753
 20
110.12500
 30
 0
 11
8.37720
 21
110.12500
  0
LINE
  8
Engraving
 62
   7
 39
0.400
  6
CONTINUOUS
 10
8.37720
 20
110.12500
 30
 0
 11
6.72753
 21
110.12500
  0
CIRCLE
  8
Contour
 62
   7
 39
0.100
  6
CONTINUOUS
 10
7.50000
 20
125.50000
 30
 0
 40
1.50000
  0
CIRCLE
  8
Contour
 62
   7
 39
0.100
  6
CONTINUOUS
 10
7.50000
 20
3.00000
 30
 0
 40
1.50000
  0
CIRCLE
  8
Contour
 62
   7
 39
0.100
  6
CONTINUOUS
 10
4.91000
 20
88.33000
 30
 0
 40
3.00000
  0
CIRCLE
  8
Contour
 62
   7
 39
0.100
  6
CONTINUOUS
 10
4.91000
 20
18.48000
 30
 0
 40
3.00000
  0
CIRCLE
  8
Contour
 62
   7
 39
0.100
  6
CONTINUOUS
 10
4.91000
 20
29.91000
 30
 0
 40
1.75000
  0
CIRCLE
  8
Contour
 62
   7
 39
0.100
  6
CONTINUOUS
 10
4.91000
 20
42.61000
 30
 0
 40
3.25000
  0
CIRCLE
  8
Contour
 62
   7
 39
0.100
  6
CONTINUOUS
 10
4.91000
 20
70.55000
 30
 0
 40
3.25000
  0
ENDSEC
  0
EOF
